<svg width="30" height="31" viewBox="0 0 30 31" fill="none" xmlns="http://www.w3.org/2000/svg">

    <g id="computerFrontEnd">
        <path fill-rule="evenodd" clip-rule="evenodd"
              d="M4.5 8.12505C4.5 7.34266 4.81607 6.59232 5.37868 6.03908C5.94129 5.48585 6.70435 5.17505 7.5 5.17505H22.5C23.2956 5.17505 24.0587 5.48585 24.6213 6.03908C25.1839 6.59232 25.5 7.34266 25.5 8.12505V19.925C25.5 20.7074 25.1839 21.4578 24.6213 22.011C24.0587 22.5642 23.2956 22.875 22.5 22.875H19.17L19.3545 23.5963L20.5605 24.7822C20.7702 24.9885 20.913 25.2513 20.9709 25.5374C21.0287 25.8235 20.999 26.12 20.8855 26.3895C20.772 26.6589 20.5798 26.8893 20.3332 27.0514C20.0866 27.2134 19.7966 27.3 19.5 27.3H10.5C10.2034 27.3 9.91343 27.2134 9.66681 27.0514C9.4202 26.8893 9.22799 26.6589 9.11448 26.3895C9.00098 26.12 8.97127 25.8235 9.02912 25.5374C9.08698 25.2513 9.22979 24.9885 9.4395 24.7822L10.6455 23.5963L10.83 22.875H7.5C6.70435 22.875 5.94129 22.5642 5.37868 22.011C4.81607 21.4578 4.5 20.7074 4.5 19.925V8.12505ZM13.1565 18.45H7.5V8.12505H22.5V18.45H13.1565Z"
              fill="white"/>
    </g>

    <g id="contactMe">
        <rect width="157" height="50" transform="translate(0 0.5)" fill="#676CDB"/>
        <path d="M27.68 18.24C29.4133 18.24 30.8533 18.68 32 19.56C33.1467 20.44 33.92 21.6333 34.32 23.14H31.9C31.5667 22.2867 31.0333 21.6133 30.3 21.12C29.58 20.6133 28.6933 20.36 27.64 20.36C26.8 20.36 26.0467 20.5667 25.38 20.98C24.7267 21.3933 24.2067 21.9867 23.82 22.76C23.4467 23.52 23.26 24.4133 23.26 25.44C23.26 26.4533 23.4467 27.3467 23.82 28.12C24.2067 28.88 24.7267 29.4667 25.38 29.88C26.0467 30.2933 26.8 30.5 27.64 30.5C28.6933 30.5 29.58 30.2533 30.3 29.76C31.0333 29.2533 31.5667 28.58 31.9 27.74H34.32C33.92 29.2467 33.1467 30.44 32 31.32C30.8533 32.1867 29.4133 32.62 27.68 32.62C26.3467 32.62 25.1667 32.32 24.14 31.72C23.1133 31.1067 22.32 30.26 21.76 29.18C21.2 28.0867 20.92 26.84 20.92 25.44C20.92 24.04 21.2 22.8 21.76 21.72C22.32 20.6267 23.1133 19.7733 24.14 19.16C25.1667 18.5467 26.3467 18.24 27.68 18.24ZM41.6348 21.34C42.7015 21.34 43.6615 21.5667 44.5148 22.02C45.3682 22.4733 46.0348 23.1267 46.5148 23.98C46.9948 24.8333 47.2348 25.8333 47.2348 26.98C47.2348 28.14 46.9948 29.1467 46.5148 30C46.0348 30.8533 45.3682 31.5067 44.5148 31.96C43.6615 32.4133 42.7015 32.64 41.6348 32.64C40.5682 32.64 39.6082 32.4133 38.7548 31.96C37.9148 31.5067 37.2482 30.8533 36.7548 30C36.2748 29.1333 36.0348 28.1267 36.0348 26.98C36.0348 25.8333 36.2748 24.8333 36.7548 23.98C37.2482 23.1267 37.9148 22.4733 38.7548 22.02C39.6082 21.5667 40.5682 21.34 41.6348 21.34ZM41.6348 23.32C41.0482 23.32 40.5082 23.4533 40.0148 23.72C39.5215 23.9867 39.1215 24.4 38.8148 24.96C38.5215 25.5067 38.3748 26.18 38.3748 26.98C38.3748 27.7933 38.5215 28.4733 38.8148 29.02C39.1215 29.5667 39.5215 29.9733 40.0148 30.24C40.5082 30.5067 41.0482 30.64 41.6348 30.64C42.2215 30.64 42.7615 30.5067 43.2548 30.24C43.7482 29.9733 44.1415 29.5667 44.4348 29.02C44.7415 28.4733 44.8948 27.7933 44.8948 26.98C44.8948 26.18 44.7415 25.5067 44.4348 24.96C44.1415 24.4 43.7482 23.9867 43.2548 23.72C42.7615 23.4533 42.2215 23.32 41.6348 23.32ZM55.5869 21.3C56.8669 21.3 57.8935 21.7133 58.6669 22.54C59.4402 23.3667 59.8269 24.5467 59.8269 26.08V32.5H57.5469V26.32C57.5469 25.3333 57.2935 24.5733 56.7869 24.04C56.2802 23.4933 55.5869 23.22 54.7069 23.22C53.8002 23.22 53.0735 23.5133 52.5269 24.1C51.9802 24.6733 51.7069 25.52 51.7069 26.64V32.5H49.4269V21.48H51.7069V23.9C52.0002 23.0733 52.4935 22.4333 53.1869 21.98C53.8802 21.5267 54.6802 21.3 55.5869 21.3ZM68.0333 30.52V32.5H66.6333C65.4599 32.5 64.5666 32.22 63.9533 31.66C63.3533 31.0867 63.0533 30.14 63.0533 28.82V23.42H61.4733V21.48H63.0533V18.74H65.3533V21.48H68.0133V23.42H65.3533V28.86C65.3533 29.4867 65.4666 29.92 65.6933 30.16C65.9333 30.4 66.3466 30.52 66.9333 30.52H68.0333ZM74.5891 21.34C75.5891 21.34 76.4424 21.5867 77.1491 22.08C77.8557 22.5733 78.3557 23.2267 78.6491 24.04V21.48H80.9291V32.5H78.6491V29.94C78.3557 30.7533 77.8557 31.4067 77.1491 31.9C76.4424 32.3933 75.5891 32.64 74.5891 32.64C73.6291 32.64 72.7691 32.4133 72.0091 31.96C71.2624 31.5067 70.6757 30.8533 70.2491 30C69.8224 29.1467 69.6091 28.14 69.6091 26.98C69.6091 25.8333 69.8224 24.8333 70.2491 23.98C70.6757 23.1267 71.2624 22.4733 72.0091 22.02C72.7691 21.5667 73.6291 21.34 74.5891 21.34ZM75.2891 23.34C74.2757 23.34 73.4624 23.6667 72.8491 24.32C72.2491 24.96 71.9491 25.8467 71.9491 26.98C71.9491 28.1133 72.2491 29.0067 72.8491 29.66C73.4624 30.3 74.2757 30.62 75.2891 30.62C75.9291 30.62 76.5024 30.4733 77.0091 30.18C77.5157 29.8733 77.9157 29.4467 78.2091 28.9C78.5024 28.3533 78.6491 27.7133 78.6491 26.98C78.6491 26.26 78.5024 25.6267 78.2091 25.08C77.9157 24.52 77.5157 24.0933 77.0091 23.8C76.5024 23.4933 75.9291 23.34 75.2891 23.34ZM88.5652 21.34C89.9918 21.34 91.1718 21.72 92.1052 22.48C93.0385 23.2267 93.6185 24.2467 93.8452 25.54H91.4252C91.2918 24.8467 90.9652 24.3067 90.4452 23.92C89.9385 23.52 89.2985 23.32 88.5252 23.32C87.6452 23.32 86.9118 23.6333 86.3252 24.26C85.7385 24.8733 85.4452 25.78 85.4452 26.98C85.4452 28.18 85.7385 29.0933 86.3252 29.72C86.9118 30.3467 87.6452 30.66 88.5252 30.66C89.2985 30.66 89.9385 30.46 90.4452 30.06C90.9652 29.66 91.2918 29.1133 91.4252 28.42H93.8452C93.6185 29.7133 93.0385 30.74 92.1052 31.5C91.1718 32.26 89.9918 32.64 88.5652 32.64C87.4985 32.64 86.5518 32.4133 85.7252 31.96C84.9118 31.5067 84.2718 30.8533 83.8052 30C83.3385 29.1467 83.1052 28.14 83.1052 26.98C83.1052 25.8333 83.3385 24.8333 83.8052 23.98C84.2718 23.1267 84.9118 22.4733 85.7252 22.02C86.5518 21.5667 87.4985 21.34 88.5652 21.34ZM101.588 30.52V32.5H100.188C99.0146 32.5 98.1213 32.22 97.508 31.66C96.908 31.0867 96.608 30.14 96.608 28.82V23.42H95.028V21.48H96.608V18.74H98.908V21.48H101.568V23.42H98.908V28.86C98.908 29.4867 99.0213 29.92 99.248 30.16C99.488 30.4 99.9013 30.52 100.488 30.52H101.588ZM123.051 18.6V32.5H120.751V22.08L116.731 32.5H114.731L110.691 22.08V32.5H108.411V18.6H111.171L115.771 29.7L120.291 18.6H123.051ZM136.034 26.46C136.034 26.8333 136.007 27.16 135.954 27.44H127.474C127.514 28.5733 127.827 29.4133 128.414 29.96C129.001 30.5067 129.727 30.78 130.594 30.78C131.354 30.78 131.994 30.5867 132.514 30.2C133.047 29.8133 133.374 29.3 133.494 28.66H135.934C135.787 29.4333 135.481 30.12 135.014 30.72C134.547 31.32 133.941 31.7933 133.194 32.14C132.447 32.4733 131.614 32.64 130.694 32.64C129.627 32.64 128.681 32.4133 127.854 31.96C127.041 31.5067 126.401 30.8533 125.934 30C125.467 29.1467 125.234 28.14 125.234 26.98C125.234 25.8333 125.467 24.8333 125.934 23.98C126.401 23.1267 127.041 22.4733 127.854 22.02C128.681 21.5667 129.627 21.34 130.694 21.34C131.774 21.34 132.714 21.5667 133.514 22.02C134.327 22.46 134.947 23.0733 135.374 23.86C135.814 24.6333 136.034 25.5 136.034 26.46ZM133.734 26.4C133.761 25.68 133.634 25.08 133.354 24.6C133.087 24.1067 132.714 23.7467 132.234 23.52C131.767 23.28 131.254 23.16 130.694 23.16C129.801 23.16 129.054 23.4333 128.454 23.98C127.854 24.5267 127.527 25.3333 127.474 26.4H133.734Z"
              fill="white"/>
    </g>

    <g id="convertMail">
        <path d="M17.125 0.125H0.875C0.529297 0.125 0.25 0.404297 0.25 0.75V13.25C0.25 13.5957 0.529297 13.875 0.875 13.875H17.125C17.4707 13.875 17.75 13.5957 17.75 13.25V0.75C17.75 0.404297 17.4707 0.125 17.125 0.125ZM15.5469 2.25195L9.38477 7.04688C9.23242 7.16602 9.01953 7.16602 8.86719 7.04688L2.70312 2.25195C2.67989 2.23402 2.66285 2.20927 2.65438 2.18116C2.64592 2.15306 2.64647 2.12301 2.65594 2.09523C2.66542 2.06745 2.68335 2.04333 2.70722 2.02625C2.73109 2.00918 2.75971 2 2.78906 2H15.4609C15.4903 2 15.5189 2.00918 15.5428 2.02625C15.5667 2.04333 15.5846 2.06745 15.5941 2.09523C15.6035 2.12301 15.6041 2.15306 15.5956 2.18116C15.5872 2.20927 15.5701 2.23402 15.5469 2.25195Z"
              fill="white"/>
    </g>

    <g id="CSS">
        <path d="M0.466675 0.0957031H65.5292L59.6125 66.904L32.9292 74.454L6.39167 66.8999L0.466675 0.0957031ZM53.4167 13.7665L12.5833 13.7582L13.2417 21.879L44.6125 21.8874L43.825 30.304H23.25L23.9958 38.2749H43.15L42.0167 49.1915L33 51.6832L23.8458 49.1707L23.2583 42.6332H15.175L16.075 54.579L33 59.8499L49.6458 55.1124L53.4167 13.7665Z"
              fill="white" fill-opacity="0.5"/>
    </g>

    <g id="GitHub">
        <path fill-rule="evenodd" clip-rule="evenodd"
              d="M44 0C19.69 0 0 19.69 0 44C0 63.47 12.595 79.915 30.085 85.745C32.285 86.13 33.11 84.81 33.11 83.655C33.11 82.61 33.055 79.145 33.055 75.46C22 77.495 19.14 72.765 18.26 70.29C17.765 69.025 15.62 65.12 13.75 64.075C12.21 63.25 10.01 61.215 13.695 61.16C17.16 61.105 19.635 64.35 20.46 65.67C24.42 72.325 30.745 70.455 33.275 69.3C33.66 66.44 34.815 64.515 36.08 63.415C26.29 62.315 16.06 58.52 16.06 41.69C16.06 36.905 17.765 32.945 20.57 29.865C20.13 28.765 18.59 24.255 21.01 18.205C21.01 18.205 24.695 17.05 33.11 22.715C36.63 21.725 40.37 21.23 44.11 21.23C47.85 21.23 51.59 21.725 55.11 22.715C63.525 16.995 67.21 18.205 67.21 18.205C69.63 24.255 68.09 28.765 67.65 29.865C70.455 32.945 72.16 36.85 72.16 41.69C72.16 58.575 61.875 62.315 52.085 63.415C53.68 64.79 55.055 67.43 55.055 71.555C55.055 77.44 55 82.17 55 83.655C55 84.81 55.825 86.185 58.025 85.745C66.7597 82.796 74.3497 77.1822 79.7268 69.6937C85.1039 62.2052 87.9974 53.219 88 44C88 19.69 68.31 0 44 0Z"
              fill="#FFFEFE"/>
    </g>

    <g id="HTML">
        <path d="M0.179832 0.375L6.62514 73.2852L36.0001 81.625L65.258 73.2852L71.8302 0.375H0.179832ZM58.2853 17.6699L57.8166 22.2793L57.6505 24.1836H23.3341L24.1349 33.3828H56.8595L56.5373 35.7559L54.4669 59.4082L54.3009 60.9902L36.0392 66.0293V66.0586H35.922L35.8927 66.0684V66.0586H35.883L17.465 60.9805L16.3517 46.8594H25.2482L25.883 54.0078L35.883 56.7129H35.922L45.883 54.0176L46.9962 42.4355H35.8927V42.4258H15.883L13.6564 17.6699L13.4904 15.2969H58.4415L58.2853 17.6699Z"
              fill="white" fill-opacity="0.5"/>
    </g>

    <g id="imgGitHub">
        <path fill-rule="evenodd" clip-rule="evenodd"
              d="M12.5 0C5.59375 0 0 5.59375 0 12.5C0 18.0312 3.57812 22.7031 8.54688 24.3594C9.17188 24.4688 9.40625 24.0938 9.40625 23.7656C9.40625 23.4688 9.39062 22.4844 9.39062 21.4375C6.25 22.0156 5.4375 20.6719 5.1875 19.9688C5.04688 19.6094 4.4375 18.5 3.90625 18.2031C3.46875 17.9688 2.84375 17.3906 3.89062 17.375C4.875 17.3594 5.57812 18.2812 5.8125 18.6562C6.9375 20.5469 8.73437 20.0156 9.45312 19.6875C9.5625 18.875 9.89062 18.3281 10.25 18.0156C7.46875 17.7031 4.5625 16.625 4.5625 11.8437C4.5625 10.4844 5.04688 9.35938 5.84375 8.48438C5.71875 8.17188 5.28125 6.89062 5.96875 5.17188C5.96875 5.17188 7.01562 4.84375 9.40625 6.45312C10.4062 6.17188 11.4687 6.03125 12.5312 6.03125C13.5937 6.03125 14.6562 6.17188 15.6562 6.45312C18.0469 4.82812 19.0938 5.17188 19.0938 5.17188C19.7812 6.89062 19.3438 8.17188 19.2188 8.48438C20.0156 9.35938 20.5 10.4687 20.5 11.8437C20.5 16.6406 17.5781 17.7031 14.7969 18.0156C15.25 18.4062 15.6406 19.1562 15.6406 20.3281C15.6406 22 15.625 23.3438 15.625 23.7656C15.625 24.0938 15.8594 24.4844 16.4844 24.3594C18.9658 23.5216 21.1221 21.9268 22.6496 19.7993C24.1772 17.6719 24.9993 15.119 25 12.5C25 5.59375 19.4062 0 12.5 0Z"
              fill="white"/>
    </g>

    <g id="imgLinkEdin">
        <path fill-rule="evenodd" clip-rule="evenodd"
              d="M0.041672 1.95624C0.041672 1.44846 0.243386 0.961482 0.602441 0.602428C0.961495 0.243373 1.44848 0.041659 1.95626 0.041659H21.0417C21.2933 0.0412481 21.5426 0.0904746 21.7752 0.18652C22.0077 0.282566 22.2191 0.423544 22.3971 0.601384C22.5752 0.779224 22.7164 0.990434 22.8127 1.22292C22.909 1.45541 22.9585 1.7046 22.9583 1.95624V21.0417C22.9586 21.2934 22.9093 21.5426 22.8131 21.7752C22.7169 22.0078 22.5759 22.2192 22.3979 22.3972C22.22 22.5752 22.0087 22.7164 21.7762 22.8127C21.5437 22.909 21.2944 22.9585 21.0427 22.9583H1.95626C1.70474 22.9583 1.45569 22.9088 1.22334 22.8125C0.99098 22.7162 0.779871 22.5751 0.602072 22.3972C0.424273 22.2193 0.283268 22.0081 0.187112 21.7757C0.0909564 21.5433 0.0415352 21.2942 0.041672 21.0427V1.95624ZM9.11251 8.77916H12.2156V10.3375C12.6635 9.44166 13.8094 8.63541 15.5313 8.63541C18.8323 8.63541 19.6146 10.4198 19.6146 13.6937V19.7583H16.274V14.4396C16.274 12.575 15.826 11.5229 14.6885 11.5229C13.1104 11.5229 12.4542 12.6573 12.4542 14.4396V19.7583H9.11251V8.77916ZM3.38334 19.6156H6.72501V8.63541H3.38334V19.6146V19.6156ZM7.20313 5.05416C7.20943 5.34028 7.15852 5.62477 7.05338 5.89095C6.94824 6.15712 6.791 6.39961 6.59087 6.60419C6.39075 6.80877 6.15178 6.97132 5.88798 7.08229C5.62418 7.19326 5.34088 7.25043 5.05469 7.25043C4.76851 7.25043 4.4852 7.19326 4.22141 7.08229C3.95761 6.97132 3.71864 6.80877 3.51851 6.60419C3.31839 6.39961 3.16114 6.15712 3.05601 5.89095C2.95087 5.62477 2.89996 5.34028 2.90626 5.05416C2.91862 4.49255 3.15041 3.95811 3.55197 3.56529C3.95353 3.17247 4.49295 2.95251 5.05469 2.95251C5.61644 2.95251 6.15585 3.17247 6.55742 3.56529C6.95898 3.95811 7.19076 4.49255 7.20313 5.05416Z"
              fill="white"/>
    </g>

    <g id="imgWhatsApp">
        <path d="M16.9917 14.0766L16.5421 11.6414C16.5049 11.4403 16.349 11.282 16.1485 11.2419L12.613 10.5348C12.4488 10.5021 12.2795 10.5534 12.1613 10.6716L10.7249 12.108C8.30487 11.0236 6.96167 9.67762 5.77984 7.15358L7.21157 5.72178C7.32982 5.6036 7.38109 5.43408 7.34833 5.27014L6.64122 1.73459C6.60108 1.53403 6.44282 1.37811 6.24167 1.34096L3.80646 0.891369C3.73978 0.879064 3.6711 0.880412 3.60489 0.89547C2.96189 1.0416 2.37519 1.36557 1.90825 1.83262C1.0996 2.64127 0.790577 3.82117 1.01458 5.24494C1.39064 7.63563 2.56198 10.9627 4.72292 13.1322L4.75233 13.1615C6.92036 15.321 10.2474 16.4924 12.6381 16.8685C12.9392 16.9159 13.2294 16.9394 13.5075 16.9394C14.5442 16.9394 15.4128 16.6124 16.0504 15.9748C16.5174 15.5078 16.8415 14.9211 16.9875 14.2781C17.0026 14.212 17.0041 14.1433 16.9917 14.0766Z"
              fill="white"/>
    </g>

    <g id="logoStyledComponents">
        <path d="M31.2591 0.25L30.9888 1.64963C30.5708 4.30212 30.7221 5.06099 31.8682 6.04539L32.9747 6.95461L31.8286 12.0305C31.1438 15.0588 30.3041 17.5968 29.7707 18.4308C29.313 19.1503 28.7796 20.2099 28.6642 20.7791C28.4732 21.4592 27.8245 22.1429 26.8334 22.7478C25.9576 23.2418 24.2385 24.5663 23.0203 25.6294C22.0472 26.4993 21.3769 27.0326 21.0129 27.2617L19.8235 28.196C19.4415 28.8046 19.2253 29.295 19.1424 29.6672C19.0595 30.0503 19.1063 30.3044 19.2289 30.4905C19.3478 30.6695 19.5532 30.7948 19.8343 30.8736C20.1671 30.951 20.5097 30.9788 20.8507 30.9559C21.6222 30.9035 22.3858 30.7691 23.1284 30.555C23.3807 30.487 23.5789 30.4225 23.7519 30.3653C24.0186 30.0395 24.6349 29.4238 25.7269 28.3535C28.6246 25.5149 29.731 23.9613 28.5885 24.3802C28.1669 24.5305 28.3579 24.1511 29.0823 23.3922C30.6104 21.9138 31.4862 19.6801 33.317 12.6748C34.7659 7.14433 34.7659 7.06558 35.8327 7.06558C36.3336 7.06558 37.75 7.15149 37.75 7.15149V0.25H34.4992H31.2591ZM18.4216 12.0806C17.3692 12.0735 15.1058 13.6664 8.33025 19.1611C8.03832 19.8519 8.01309 20.328 8.14644 20.6359C8.23294 20.8471 8.39152 20.9938 8.61137 21.1012C8.82761 21.2086 9.10873 21.2731 9.41867 21.2981C10.035 21.3518 10.763 21.2552 11.3504 21.1406L11.7469 21.0511C11.8826 20.8704 12.0608 20.7254 12.2659 20.6287C12.6839 20.3996 14.4391 18.8103 16.1943 17.1064C19.2829 13.9993 20.0073 12.5961 18.7495 12.1415C18.6463 12.1007 18.5326 12.08 18.4216 12.0806ZM26.336 14.2391C25.4098 14.2642 23.7411 15.3309 20.8831 17.5968C19.4487 18.753 18.5405 19.3759 18.0539 19.5047L16.1654 20.9867C15.4554 22.2753 15.3509 23.0736 15.5383 23.5139C15.5852 23.6225 15.6533 23.7208 15.7387 23.8031C15.8241 23.8855 15.925 23.9502 16.0357 23.9936C16.311 24.1015 16.6046 24.1562 16.9006 24.1546C17.608 24.1471 18.3112 24.0448 18.991 23.8504C19.3453 23.7559 19.6952 23.6461 20.0398 23.521L20.1443 23.4781L20.3353 23.3779C20.6957 22.9161 21.5246 22.0462 22.5626 21.044C25.8423 17.9011 27.5181 15.6674 27.1758 14.8333C27.0208 14.4288 26.7541 14.2248 26.336 14.2391ZM17.5998 18.1051C17.3331 18.1337 16.7349 18.5919 15.6573 19.5298C14.1003 20.8972 12.4028 21.6847 11.8154 21.3339C11.6788 21.3645 11.5419 21.3932 11.4045 21.4198C10.8062 21.5379 10.0602 21.6346 9.39344 21.5809C9.07929 21.562 8.77137 21.4855 8.48523 21.3554C8.21533 21.2328 7.99994 21.0164 7.87975 20.7468C7.7464 20.4247 7.7464 20.0238 7.89777 19.5119L5.55514 21.4234L0.253605 25.7798V32.8424L17.6251 19.2506C17.6217 19.1018 17.6411 18.9533 17.6827 18.8103C17.8161 18.3306 17.8089 18.0872 17.5998 18.1087V18.1051ZM25.0746 20.3925C24.8115 20.3925 24.3718 20.7612 23.669 21.5021C22.714 22.5152 21.2111 23.496 20.4146 23.6964L20.292 23.7609C20.1613 23.8145 20.0291 23.8646 19.8956 23.9112C19.6794 23.9828 19.3982 24.0687 19.0739 24.1546C18.4252 24.33 17.6179 24.4911 16.897 24.4732C16.5572 24.4728 16.2207 24.4072 15.9059 24.2799C15.6093 24.1585 15.3716 23.9275 15.2428 23.6356C15.0338 23.138 15.1167 22.44 15.5744 21.4485L0.25 33.4366V37.75H6.98234L21.2615 26.6103C21.6327 26.2022 22.1914 25.6438 22.9446 24.9457C24.9629 23.0879 25.4206 22.4472 25.4206 21.4986C25.4206 20.7612 25.3377 20.3889 25.0746 20.3889V20.3925ZM28.4732 27.3727L27.2514 28.5826C26.5667 29.2269 25.3449 30.0216 24.5088 30.3617L24.343 30.4333L24.3322 30.4512L24.2961 30.487C24.2637 30.512 24.2493 30.5156 24.2241 30.5263C23.8903 30.6518 23.5512 30.7629 23.2077 30.8592C22.4441 31.08 21.6586 31.218 20.8651 31.2709C20.4899 31.2948 20.1132 31.2622 19.7478 31.1743C19.4307 31.1049 19.1508 30.9213 18.9622 30.6588C18.7892 30.3939 18.7387 30.0395 18.836 29.6028C18.9134 29.2919 19.0284 28.9914 19.1784 28.7079L7.6563 37.75H22.9807L24.8115 35.6667C27.3271 32.7529 28.4732 30.6695 28.4732 28.8869V27.3727Z"
              fill="#7572D5"/>
    </g>

    <g id="logoTelegram">
        <rect width="35" height="35" rx="17.5" fill="#7572D5"/>
        <path d="M25.9057 11.7645L23.3705 23.7208C23.1791 24.5644 22.6804 24.7745 21.9717 24.3772L18.1085 21.5305L16.2447 23.3235C16.0383 23.5299 15.8661 23.7022 15.4682 23.7022L15.7461 19.7681L22.9054 13.2989C23.2169 13.0216 22.8376 12.8674 22.4218 13.1452L13.5708 18.7186L9.76043 17.5257C8.93174 17.2671 8.91674 16.697 9.93325 16.2992L24.837 10.5572C25.5271 10.2985 26.1308 10.7102 25.9057 11.7645Z"
              fill="#1F1F20"/>
    </g>

    <g id="logoTS">
        <path d="M0 20V40H40V0H0V20ZM32.235 18.4067C33.2517 18.66 34.025 19.1117 34.7367 19.8483C35.105 20.2417 35.6517 20.9583 35.695 21.1317C35.7083 21.1817 33.9683 22.3483 32.915 23.0033C32.8767 23.0283 32.7233 22.8633 32.5533 22.61C32.0367 21.86 31.4983 21.5367 30.6733 21.48C29.46 21.3967 28.68 22.0317 28.6867 23.0917C28.6756 23.3523 28.7343 23.6112 28.8567 23.8417C29.1233 24.3933 29.62 24.725 31.1733 25.3967C34.0383 26.63 35.2633 27.4417 36.025 28.5967C36.875 29.885 37.0667 31.9433 36.4883 33.4733C35.855 35.1367 34.28 36.2667 32.0633 36.64C31.3783 36.7617 29.7533 36.7433 29.0167 36.61C27.41 36.3233 25.8867 35.53 24.9467 34.4883C24.5783 34.0833 23.86 33.0217 23.905 32.9467C23.9233 32.92 24.0883 32.8183 24.2717 32.7117C24.4517 32.61 25.1233 32.2217 25.7583 31.8533L26.9083 31.1867L27.15 31.5433C27.4867 32.0567 28.2217 32.7617 28.6667 32.9967C29.9433 33.67 31.695 33.575 32.5583 32.8C32.7319 32.6538 32.8694 32.4693 32.9599 32.2612C33.0504 32.053 33.0915 31.8267 33.08 31.6C33.08 31.1367 33.0217 30.9333 32.78 30.5833C32.47 30.14 31.835 29.7667 30.0317 28.9833C27.9683 28.095 27.08 27.5433 26.2667 26.6667C25.759 26.0881 25.3841 25.4055 25.1683 24.6667C25.0167 24.1017 24.9783 22.685 25.0983 22.115C25.5233 20.12 27.0283 18.7317 29.2 18.3183C29.905 18.185 31.5433 18.235 32.235 18.4067ZM22.845 20.0767L22.8583 21.715H17.65V36.5083H13.9667V21.715H8.76333V20.1083C8.76333 19.2183 8.78167 18.475 8.80667 18.4583C8.82667 18.4317 11.995 18.4183 15.835 18.425L22.8267 18.445L22.845 20.0767Z"
              fill="#7572D5"/>
    </g>

    <g id="logoVkLogo">
        <path d="M18.1696 13.9941C17.8038 13.5391 17.3881 13.1314 16.9861 12.737C16.8432 12.5968 16.6954 12.4518 16.5529 12.3076C16.1439 11.8932 16.129 11.7375 16.4529 11.2668C16.6769 10.9424 16.9145 10.6175 17.1442 10.3033C17.3526 10.0183 17.568 9.72351 17.7746 9.42777L17.817 9.36697C18.2117 8.80103 18.6199 8.21583 18.8372 7.50988C18.8936 7.32363 18.9528 7.04955 18.8174 6.82036C18.682 6.59137 18.4195 6.52151 18.2337 6.48888C18.1418 6.47273 18.0506 6.47053 17.9659 6.47053L15.3809 6.46861L15.3595 6.46842C14.9687 6.46842 14.7053 6.65927 14.5544 7.05194C14.4103 7.42713 14.252 7.82665 14.0714 8.20653C13.7119 8.96298 13.2554 9.83425 12.5948 10.5609L12.5669 10.5918C12.4889 10.6787 12.4005 10.777 12.3359 10.777C12.326 10.777 12.3152 10.7751 12.303 10.7711C12.1662 10.7159 12.0744 10.3726 12.0785 10.213C12.0786 10.2108 12.0786 10.2086 12.0786 10.2064L12.0768 7.1105C12.0768 7.09976 12.0761 7.08913 12.0747 7.07849C12.009 6.57522 11.8633 6.26195 11.3129 6.15026C11.2983 6.14724 11.2834 6.14575 11.2685 6.14575H8.5806C8.14268 6.14575 7.90138 6.33018 7.67456 6.60623C7.61334 6.68002 7.48589 6.83364 7.54906 7.01998C7.61315 7.20911 7.8212 7.24955 7.88894 7.26268C8.22522 7.32899 8.41477 7.54213 8.46846 7.91453C8.56219 8.56121 8.57371 9.25144 8.50471 10.0868C8.48547 10.3189 8.44742 10.4982 8.38471 10.6514C8.37015 10.6872 8.31849 10.8038 8.26582 10.8039C8.24908 10.8039 8.20067 10.7971 8.11248 10.7341C7.90397 10.5861 7.75142 10.3749 7.57357 10.114C6.96853 9.22796 6.46074 8.25191 6.02097 7.12938C5.85787 6.71615 5.55327 6.48481 5.16289 6.478C4.73395 6.47125 4.34504 6.46799 3.97413 6.46799C3.56886 6.46799 3.19314 6.47187 2.82625 6.47978C2.51217 6.48553 2.29492 6.58308 2.18061 6.76996C2.06611 6.95697 2.07356 7.20264 2.20276 7.50001C3.23702 9.88254 4.17478 11.6149 5.24345 13.1171C5.99225 14.1683 6.74333 14.8959 7.60686 15.4068C8.51664 15.9461 9.5362 16.2083 10.7237 16.2083C10.8583 16.2083 10.9975 16.2048 11.1379 16.198C11.8279 16.1632 12.0839 15.9044 12.1163 15.2082C12.1317 14.8525 12.1692 14.4793 12.338 14.1611C12.4445 13.9606 12.5439 13.9606 12.5765 13.9606C12.6394 13.9606 12.7174 13.9906 12.8011 14.0468C12.9513 14.1484 13.0801 14.2845 13.1857 14.4034C13.285 14.5163 13.3833 14.6304 13.4817 14.7446C13.6939 14.9909 13.9134 15.2456 14.1427 15.4871C14.6445 16.0162 15.1973 16.2488 15.8323 16.1983H18.2023C18.2073 16.1983 18.2124 16.1981 18.2175 16.1978C18.4536 16.1817 18.6582 16.0459 18.7786 15.8254C18.9279 15.5522 18.9249 15.2037 18.7706 14.893C18.5956 14.5415 18.3685 14.2413 18.1696 13.9941Z"
              fill="#7572D5"/>
    </g>

    <g id="obratnieCavickyDlyText">
        <path d="M30.3 28.1C27.0333 28.1 24.6667 26.9333 23.2 24.6C22.5333 23.6 22 22.3667 21.6 20.9C21.2 19.4333 21 17.9 21 16.3C21 12.8333 21.8667 9.7 23.6 6.9C25.4 4.1 28.0333 1.9 31.5 0.299994L32.4 2.09999C30.4667 2.9 28.7667 4.13333 27.3 5.79999C25.9 7.46666 25.0667 9.16666 24.8 10.9C24.6 11.7 24.5 12.4667 24.5 13.2C24.5 13.8667 24.6 14.5 24.8 15.1C26.2667 13.5 28.2 12.7 30.6 12.7C32.9333 12.7 34.8333 13.4 36.3 14.8C37.7667 16.1333 38.5 18 38.5 20.4C38.5 22.6667 37.7333 24.5333 36.2 26C34.6667 27.4 32.7 28.1 30.3 28.1ZM9.7 28.1C6.43333 28.1 4.06667 26.9333 2.6 24.6C1.93333 23.6 1.4 22.3667 1 20.9C0.6 19.4333 0.4 17.9 0.4 16.3C0.4 12.8333 1.26667 9.7 3 6.9C4.8 4.1 7.43333 1.9 10.9 0.299994L11.8 2.09999C9.86667 2.9 8.16667 4.13333 6.7 5.79999C5.3 7.46666 4.46667 9.16666 4.2 10.9C4 11.7 3.9 12.4667 3.9 13.2C3.9 13.8667 4 14.5 4.2 15.1C5.66667 13.5 7.6 12.7 10 12.7C12.3333 12.7 14.2333 13.4 15.7 14.8C17.1667 16.1333 17.9 18 17.9 20.4C17.9 22.6667 17.1333 24.5333 15.6 26C14.0667 27.4 12.1 28.1 9.7 28.1Z"
              fill="#C4C4C4"/>
    </g>

    <g id="React">
        <path d="M92.9056 32.7028C91.7031 32.2887 90.4904 31.9051 89.2687 31.5524C89.4739 30.7107 89.6628 29.8792 89.8306 29.0624C92.5838 15.6484 90.7839 4.84184 84.6361 1.28381C78.7416 -2.12716 69.1016 1.42955 59.3659 9.93348C58.4064 10.7731 57.4682 11.6369 56.5522 12.524C55.9389 11.9341 55.3149 11.3556 54.6803 10.7889C44.4767 1.69623 34.2493 -2.13602 28.1081 1.43221C22.2189 4.8538 20.475 15.0127 22.9538 27.7254C23.2004 28.9845 23.4788 30.2371 23.7888 31.4819C22.3412 31.8948 20.9442 32.3342 19.6073 32.802C7.64443 36.9882 0.00476074 43.5483 0.00476074 50.353C0.00476074 57.3809 8.20629 64.4301 20.6662 68.7044C21.6763 69.0495 22.6949 69.3693 23.7209 69.6635C23.3877 71.0042 23.0918 72.3541 22.8337 73.7114C20.4706 86.2035 22.316 96.1224 28.1893 99.5223C34.2555 103.033 44.437 99.4248 54.3506 90.7268C55.1545 90.0197 55.9407 89.2925 56.7084 88.546C57.7004 89.5067 58.7189 90.4394 59.7627 91.343C69.366 99.6365 78.8502 102.985 84.7177 99.5763C90.7782 96.055 92.748 85.3995 90.1907 72.4357C89.9893 71.42 89.7634 70.4094 89.5132 69.4048C90.2282 69.1921 90.93 68.9733 91.6141 68.7456C104.567 64.4385 112.995 57.4748 112.995 50.353C112.995 43.5235 105.109 36.9191 92.9056 32.7028ZM90.0963 64.1474C89.4783 64.3525 88.8445 64.5506 88.1984 64.7433C86.7683 60.1996 84.8387 55.3684 82.4769 50.3764C84.7305 45.5036 86.586 40.7341 87.9759 36.2201C89.1319 36.5558 90.2534 36.9098 91.3347 37.2832C101.791 40.8962 108.169 46.2372 108.169 50.353C108.169 54.7367 101.281 60.4277 90.0963 64.1474ZM85.4557 73.3765C86.5865 79.1087 86.7476 84.2916 85.9986 88.3436C85.3259 91.9845 83.9727 94.4116 82.299 95.3839C78.7385 97.4526 71.1235 94.7637 62.911 87.6707C61.9401 86.8305 60.9927 85.9634 60.0699 85.0704C63.2539 81.5757 66.4358 77.5131 69.5412 73.0009C75.0036 72.5145 80.1641 71.7189 84.844 70.6332C85.0694 71.5426 85.2734 72.4574 85.4557 73.3765ZM38.5257 95.0264C35.0469 96.2592 32.2759 96.2947 30.6009 95.3254C27.0369 93.2625 25.5552 85.2981 27.5762 74.6151C27.8165 73.3527 28.0916 72.0973 28.4012 70.8502C33.0294 71.8779 38.1523 72.6168 43.6275 73.0625C46.7542 77.4777 50.0278 81.5358 53.3271 85.0894C52.6259 85.7704 51.9082 86.4339 51.1745 87.0793C46.7904 90.9253 42.3974 93.6541 38.5257 95.0264ZM22.2277 64.1204C16.7181 62.2302 12.168 59.7739 9.04931 57.0934C6.24661 54.6849 4.83202 52.2932 4.83202 50.353C4.83202 46.2235 10.9657 40.9564 21.1962 37.3767C22.4378 36.9426 23.7372 36.5328 25.0856 36.1483C26.4997 40.7642 28.3544 45.5905 30.5926 50.4708C28.3252 55.4233 26.4441 60.3267 25.0163 64.9971C24.0798 64.7278 23.15 64.4355 22.2277 64.1204ZM27.691 26.7947C25.5676 15.9031 26.9777 7.68712 30.5268 5.62504C34.3067 3.42873 42.6653 6.56017 51.4755 14.4116C52.05 14.9247 52.6152 15.4483 53.1708 15.982C49.8879 19.5201 46.6443 23.5481 43.5454 27.9372C38.2313 28.4315 33.1446 29.2254 28.4678 30.289C28.1797 29.1311 27.9206 27.9661 27.691 26.7952V26.7947ZM76.4301 38.874C75.3255 36.9589 74.1799 35.068 72.9941 33.2025C76.5992 33.6601 80.0533 34.2674 83.297 35.0098C82.3233 38.1426 81.1095 41.4176 79.6808 44.7754C78.6365 42.7867 77.5527 40.8192 76.4301 38.874ZM56.5544 19.4443C58.7806 21.8652 61.0104 24.5679 63.2036 27.5004C58.7546 27.2895 54.2982 27.2886 49.8491 27.4977C52.0445 24.5922 54.2932 21.8931 56.5544 19.4443ZM36.5511 38.9072C35.4425 40.8368 34.3789 42.792 33.3613 44.7714C31.956 41.4255 30.7532 38.1355 29.7712 34.9584C32.9949 34.2346 36.4328 33.6428 40.0149 33.1936C38.8159 35.0705 37.661 36.9754 36.5511 38.9067V38.9072ZM40.1178 67.857C36.4169 67.4424 32.9274 66.8811 29.7045 66.1768C30.702 62.943 31.9312 59.583 33.367 56.1653C34.3887 58.1462 35.4567 60.1026 36.57 62.0331C37.7149 64.0177 38.9005 65.9615 40.1178 67.857ZM56.6877 81.6027C54.3996 79.1256 52.1177 76.3848 49.8892 73.4372C52.0528 73.5223 54.2584 73.5657 56.5001 73.5657C58.8031 73.5657 61.0797 73.5139 63.3206 73.4138C61.1203 76.4145 58.8989 79.1592 56.6877 81.6027ZM79.7263 55.9908C81.2366 59.4461 82.5096 62.7884 83.5203 65.9668C80.2444 66.7172 76.7073 67.3214 72.9804 67.7702C74.1746 65.87 75.3311 63.9462 76.4491 61.9999C77.5858 60.0215 78.6784 58.018 79.7263 55.9908ZM72.268 59.5794C70.5565 62.5635 68.7487 65.491 66.8475 68.3571C63.4038 68.6019 59.9525 68.7235 56.5001 68.7217C52.9837 68.7217 49.5635 68.6118 46.27 68.3974C44.3193 65.5379 42.477 62.6053 40.7472 59.606H40.7476C39.0259 56.6225 37.4177 53.5745 35.9265 50.4686C37.4139 47.3619 39.0172 44.3125 40.733 41.3268L40.7326 41.3272C42.4478 38.3407 44.2753 35.4207 46.2113 32.5734C49.5715 32.3183 53.0172 32.1854 56.4996 32.1854H56.5001C59.9984 32.1854 63.4486 32.3196 66.8078 32.5765C68.7243 35.4195 70.5402 38.3295 72.2521 41.3011C73.9736 44.2802 75.5982 47.3148 77.1231 50.3999C75.6138 53.5166 73.9944 56.5784 72.268 59.5794ZM82.2253 5.48062C86.0087 7.67073 87.4803 16.5025 85.103 28.0842C84.9512 28.8231 84.7808 29.5758 84.5955 30.339C79.9072 29.2528 74.8169 28.4453 69.4874 27.9434C66.3828 23.506 63.1656 19.4718 59.9361 15.9793C60.7825 15.1605 61.6491 14.3628 62.5349 13.5872C70.8768 6.30147 78.6732 3.42474 82.2253 5.48062ZM56.5001 40.2264C62.0724 40.2264 66.5898 44.7603 66.5898 50.353C66.5898 55.9456 62.0724 60.4796 56.5001 60.4796C50.9278 60.4796 46.4104 55.9456 46.4104 50.353C46.4104 44.7603 50.9278 40.2264 56.5001 40.2264Z"
              fill="#00D8FF"/>
    </g>

    <g id="Redux">
        <path d="M72.6971 69.5627C76.5688 69.1619 79.5061 65.8242 79.3725 61.8184C79.2393 57.8131 75.9012 54.6086 71.8959 54.6086H71.6291C67.4897 54.7422 64.2856 58.2135 64.4193 62.3525C64.5529 64.3553 65.3537 66.091 66.5553 67.2926C62.016 76.2385 55.0734 82.7807 44.6594 88.2549C37.5832 91.9934 30.2402 93.3287 22.8971 92.3943C16.8889 91.593 12.216 88.923 9.27827 84.5164C5.00614 77.9742 4.60573 70.8975 8.21065 63.8213C10.7475 58.7475 14.7525 55.009 17.2893 53.1398C16.7553 51.4041 15.9541 48.4668 15.5537 46.3307C-3.80574 60.35 -1.80287 79.3094 4.07172 88.2549C8.47745 94.9311 17.4229 99.0701 27.3029 99.0701C29.9729 99.0701 32.643 98.8029 35.3135 98.1357C52.4033 94.7975 65.3541 84.65 72.6971 69.5627ZM96.1955 53.0066C86.0483 41.1234 71.0951 34.5811 54.0053 34.5811H51.8693C50.6676 32.1779 48.1307 30.5754 45.327 30.5754H45.0598C40.9213 30.709 37.7172 34.1803 37.8504 38.3197C37.984 42.325 41.3217 45.5295 45.327 45.5295H45.5938C48.5311 45.3959 51.068 43.5266 52.1361 40.9898H54.5393C64.6865 40.9898 74.2992 43.927 82.9779 49.6684C89.6533 54.0746 94.4598 59.816 97.1299 66.7586C99.3996 72.3664 99.266 77.8406 96.8627 82.5139C93.1246 89.5902 86.8496 93.4623 78.5717 93.4623C73.2311 93.4623 68.1578 91.8598 65.4873 90.6582C64.0188 91.9934 61.3484 94.1295 59.4791 95.4652C65.2205 98.1352 71.0951 99.6041 76.7025 99.6041C89.5197 99.6041 98.9992 92.5275 102.604 85.4512C106.476 77.707 106.209 64.3553 96.1955 53.0066ZM28.3709 71.832C28.5045 75.8377 31.8422 79.0418 35.8475 79.0418H36.1147C40.2537 78.9086 43.4578 75.4369 43.3242 71.2979C43.191 67.2922 39.8529 64.0881 35.8475 64.0881H35.5807C35.3135 64.0881 34.9127 64.0881 34.6463 64.2213C29.1721 55.1422 26.9025 45.2623 27.7037 34.5807C28.2373 26.5697 30.9078 19.6266 35.5807 13.8852C39.4525 8.94508 46.9291 6.5418 52.0029 6.40861C66.1549 6.14139 72.1627 23.7656 72.5635 30.8422C74.2992 31.2426 77.2365 32.1775 79.2393 32.8451C77.6369 11.2156 64.2856 0 51.4688 0C39.4524 0 28.3709 8.67869 23.9647 21.4963C17.8234 38.5865 21.8287 55.009 29.3053 67.9602C28.6381 68.8947 28.2373 70.3635 28.3709 71.8324V71.832Z"
              fill="#764ABC"/>
    </g>

    <g id="BlockStrelockArrowLeft">
        <path d="M28.3333 13L1.66667 13" stroke="#676CDB" stroke-opacity="0.5" stroke-width="2" stroke-linecap="round"
              stroke-linejoin="round"/>
        <path d="M13.3333 24.6667L1.66667 13L13.3333 1.33335" stroke="#676CDB" stroke-opacity="0.5" stroke-width="2"
              stroke-linecap="round" stroke-linejoin="round"/>
    </g>

    <g id="BlockStrelockArrowRight">
        <path d="M6.66666 20.0001H33.3333" stroke="#676CDB" stroke-width="2" stroke-linecap="round"
              stroke-linejoin="round"/>
        <path d="M21.6667 8.33337L33.3333 20L21.6667 31.6667" stroke="#676CDB" stroke-width="2" stroke-linecap="round"
              stroke-linejoin="round"/>
    </g>

    <g id="DownloadCv1">
        <path d="M1.66667 1.16675L2.18417 3.23758C2.2743 3.59815 2.48236 3.91824 2.77528 4.14699C3.0682 4.37575 3.42918 4.50002 3.80084 4.50008H16.1992C16.5708 4.50002 16.9318 4.37575 17.2247 4.14699C17.5177 3.91824 17.7257 3.59815 17.8158 3.23758L18.3333 1.16675"
              stroke="white" stroke-width="2" stroke-linecap="round" stroke-linejoin="round"/>
    </g>

    <g id="DownloadCv2">
        <path d="M5.00001 11.5L8.33334 8.16667M5.00001 11.5V1.5V11.5ZM5.00001 11.5L1.66667 8.16667L5.00001 11.5Z"
              stroke="white" stroke-width="2" stroke-linecap="round" stroke-linejoin="round"/>
    </g>

    <g id="figmaCircle">
        <path d="M13.8833 27.8834C21.5509 27.8834 27.7667 21.6676 27.7667 14C27.7667 6.33248 21.5509 0.116699 13.8833 0.116699C6.21578 0.116699 0 6.33248 0 14C0 21.6676 6.21578 27.8834 13.8833 27.8834Z"
              fill="white" fill-opacity="0.5"/>
    </g>

    <g id="figmaOsnowa">
        <path d="M41.8833 28.1167C45.4928 28.0084 48.9181 26.4984 51.4329 23.907C53.9477 21.3156 55.3542 17.8466 55.3542 14.2355C55.3542 10.6244 53.9477 7.15538 51.4329 4.56396C48.9181 1.97255 45.4928 0.462573 41.8833 0.354248H14.1167C10.5072 0.462573 7.08192 1.97255 4.56711 4.56396C2.0523 7.15538 0.645754 10.6244 0.645754 14.2355C0.645754 17.8466 2.0523 21.3156 4.56711 23.907C7.08192 26.4984 10.5072 28.0084 14.1167 28.1167C10.4757 28.1798 7.00513 29.6705 4.45257 32.2676C1.90002 34.8648 0.469696 38.3606 0.469696 42.0022C0.469696 45.6437 1.90002 49.1395 4.45257 51.7367C7.00513 54.3339 10.4757 55.8245 14.1167 55.8876C10.4935 55.9764 7.04851 57.478 4.51734 60.072C1.98616 62.6659 0.569319 66.1466 0.569319 69.7709C0.569319 73.3952 1.98616 76.8759 4.51734 79.4698C7.04851 82.0638 10.4935 83.5655 14.1167 83.6543C17.7988 83.652 21.3294 82.188 23.9327 79.584C26.536 76.9799 27.9989 73.4489 28 69.7667V28.1167H41.8833Z"
              fill="white" fill-opacity="0.5"/>
    </g>

    <g id="jsBock">
        <path d="M43.6501 34.5312C44.5448 36.3485 45.9347 37.8759 47.6598 38.9375C49.3848 39.9991 51.3747 40.5515 53.4001 40.5313C57.4876 40.5313 60.1014 38.4875 60.1014 35.6562C60.1014 32.2812 57.4164 31.0738 52.9164 29.105L50.4489 28.0475C43.3239 25.0138 38.5989 21.215 38.5989 13.1825C38.5989 5.78375 44.2239 0.147504 53.0476 0.147504C55.904 -0.0587656 58.7579 0.580521 61.2534 1.98562C63.7488 3.39072 65.7753 5.49944 67.0801 8.04875L59.3664 12.98C58.864 11.716 57.9892 10.6345 56.858 9.87905C55.7268 9.1236 54.3927 8.72984 53.0326 8.75C52.4392 8.6906 51.84 8.75546 51.273 8.94045C50.7061 9.12544 50.1839 9.4265 49.7397 9.82445C49.2956 10.2224 48.9392 10.7085 48.6932 11.2518C48.4473 11.7951 48.3173 12.3837 48.3114 12.98C48.3114 15.9388 50.1451 17.1388 54.3789 18.98L56.8464 20.0375C65.2314 23.6338 69.9714 27.2975 69.9714 35.5363C69.9714 44.42 62.9926 49.2875 53.6214 49.2875C49.97 49.5201 46.3293 48.6912 43.1387 46.9005C39.948 45.1099 37.3438 42.4342 35.6401 39.1963L43.6501 34.5312ZM8.79388 35.3863C10.3426 38.135 11.7526 40.46 15.1426 40.46C18.3826 40.46 20.4301 39.1925 20.4301 34.2612V0.710003H30.2964V34.3925C30.2964 44.6075 24.2964 49.2575 15.5626 49.2575C12.4755 49.4263 9.40946 48.6569 6.7677 47.0506C4.12595 45.4442 2.03209 43.0761 0.761383 40.2575L8.79388 35.3863Z"
              fill="black"/>
    </g>

    <g id="jsFon">
        <path d="M0.116394 0.5H105.116V105.5H0.116394V0.5Z" fill="#F5DE19"/>
    </g>

</svg>
